<?xml version="1.0" standalone="no"?>
<!DOCTYPE svg PUBLIC "-//W3C//DTD SVG 20010904//EN"
 "http://www.w3.org/TR/2001/REC-SVG-20010904/DTD/svg10.dtd">
<svg version="1.0" xmlns="http://www.w3.org/2000/svg"
 width="225.000000pt" height="225.000000pt" viewBox="0 0 225.000000 225.000000"
 preserveAspectRatio="xMidYMid meet">
<metadata>
Created by potrace 1.15, written by Peter Selinger 2001-2017
</metadata>
<g transform="translate(0.000000,225.000000) scale(0.100000,-0.100000)"
fill="#000000" stroke="none">
<path d="M2180 1552 c0 -775 2 -751 -66 -831 -54 -63 -113 -93 -193 -99 -181
-13 -314 117 -303 296 3 39 57 82 104 82 74 0 123 -47 143 -138 3 -17 10 -32
14 -32 4 0 25 15 47 34 35 31 39 38 39 83 0 36 -6 56 -23 78 l-24 30 42 7 c24
4 45 10 48 13 10 10 -55 89 -89 107 -24 14 -48 18 -81 15 l-47 -4 21 29 c11
16 59 61 107 99 116 93 135 122 139 216 4 64 2 73 -13 73 -17 0 -30 -12 -105
-100 l-29 -35 -1 49 c0 71 -19 122 -63 172 -53 60 -106 86 -177 87 -70 0 -116
-25 -147 -80 -20 -36 -41 -113 -30 -113 3 0 25 11 48 25 64 36 117 41 171 17
63 -28 93 -78 93 -157 -1 -77 -19 -114 -106 -212 -106 -120 -148 -220 -149
-352 0 -101 25 -174 81 -236 73 -79 127 -100 264 -100 100 0 115 3 167 28 64
31 111 80 142 146 21 45 21 58 24 774 l3 727 -26 0 -25 0 0 -698z"/>
<path d="M1367 1164 c-21 -20 -45 -50 -55 -66 -11 -19 -22 -26 -32 -22 -27 11
-122 35 -126 32 -2 -2 5 -36 15 -76 l19 -72 -53 -35 c-29 -20 -60 -46 -69 -59
l-15 -24 35 10 c53 14 106 1 174 -43 88 -57 154 -49 199 24 32 52 27 93 -18
160 -44 64 -57 118 -43 171 6 20 9 36 8 36 -1 0 -18 -16 -39 -36z"/>
<path d="M598 750 c-86 -26 -131 -84 -131 -169 1 -72 27 -125 87 -178 50 -44
101 -63 172 -63 l49 -1 -35 -29 c-87 -75 -100 -88 -100 -104 0 -13 11 -16 59
-16 100 0 132 20 237 149 35 44 76 88 91 99 l29 20 -1 -57 c0 -48 5 -64 28
-94 26 -35 83 -74 93 -64 3 2 8 23 12 47 l7 42 30 -24 c22 -17 42 -23 78 -23
45 0 52 4 83 39 39 45 42 56 16 56 -33 0 -117 49 -135 79 -40 68 -9 152 64
171 78 21 200 -36 253 -117 37 -58 49 -108 44 -184 -6 -80 -36 -139 -99 -193
-80 -68 -56 -66 -831 -66 l-698 0 0 -25 0 -25 700 0 c465 0 716 4 750 11 150
32 240 173 228 357 -13 187 -125 299 -309 310 -142 8 -258 -36 -379 -144 -92
-83 -140 -108 -210 -108 -150 -1 -221 126 -145 262 14 24 25 46 25 48 0 6 -33
3 -62 -6z"/>
<path d="M1845 486 c-38 -16 -85 -70 -86 -99 -3 -45 3 -63 36 -112 46 -69 60
-121 46 -170 -6 -21 -9 -40 -7 -42 4 -4 75 74 96 104 l15 23 63 -20 c35 -11
67 -20 72 -20 7 0 -9 86 -26 141 -3 11 5 20 24 28 36 15 126 106 97 98 -82
-24 -119 -17 -198 36 -63 43 -93 50 -132 33z"/>
</g>
</svg>
